<svg width="18" height="18" viewBox="0 0 18 18" fill="none" xmlns="http://www.w3.org/2000/svg">
<path d="M4.36798 2.7239L8.99998 7.3559L13.608 2.7479C13.7098 2.63956 13.8324 2.5529 13.9685 2.4931C14.1046 2.4333 14.2513 2.4016 14.4 2.3999C14.7182 2.3999 15.0235 2.52633 15.2485 2.75137C15.4735 2.97642 15.6 3.28164 15.6 3.5999C15.6028 3.74702 15.5755 3.89317 15.5198 4.02936C15.464 4.16555 15.3811 4.28892 15.276 4.3919L10.608 8.9999L15.276 13.6679C15.4738 13.8614 15.5897 14.1234 15.6 14.3999C15.6 14.7182 15.4735 15.0234 15.2485 15.2484C15.0235 15.4735 14.7182 15.5999 14.4 15.5999C14.247 15.6062 14.0945 15.5807 13.9519 15.5249C13.8094 15.4692 13.68 15.3844 13.572 15.2759L8.99998 10.6439L4.37998 15.2639C4.27858 15.3686 4.15745 15.4522 4.02358 15.5099C3.8897 15.5676 3.74573 15.5982 3.59998 15.5999C3.28172 15.5999 2.97649 15.4735 2.75145 15.2484C2.5264 15.0234 2.39998 14.7182 2.39998 14.3999C2.39718 14.2528 2.42447 14.1066 2.48019 13.9704C2.5359 13.8343 2.61886 13.7109 2.72398 13.6079L7.39197 8.9999L2.72398 4.3319C2.5262 4.13841 2.41022 3.8764 2.39998 3.5999C2.39998 3.28164 2.5264 2.97642 2.75145 2.75137C2.97649 2.52633 3.28172 2.3999 3.59998 2.3999C3.88798 2.4035 4.16398 2.5199 4.36798 2.7239Z" fill="white"/>
</svg>
